<svg xmlns="http://www.w3.org/2000/svg" width="900" height="460" viewBox="0 0 900 460">
  <rect width="100%" height="100%" fill="#ffffff"/>
  <text x="450.0" y="28" text-anchor="middle" font-family="Arial" font-size="20" font-weight="bold" fill="#1d3f4f">Clima de Buenos Aires durante 2024</text>
  <text x="450.0" y="52" text-anchor="middle" font-family="Arial" font-size="13" fill="#555">Temperatura media mensual y precipitación acumulada</text>
  <line x1="70" y1="390" x2="865" y2="390" stroke="#444"/>
  <line x1="70" y1="45" x2="70" y2="390" stroke="#444"/>
  <rect x="54.0" y="364.8" width="32" height="25.2" fill="#9bc3d4" opacity="0.75" /><rect x="126.3" y="333.1" width="32" height="56.9" fill="#9bc3d4" opacity="0.75" /><rect x="198.5" y="234.8" width="32" height="155.2" fill="#9bc3d4" opacity="0.75" /><rect x="270.8" y="309.3" width="32" height="80.7" fill="#9bc3d4" opacity="0.75" /><rect x="343.1" y="378.1" width="32" height="11.9" fill="#9bc3d4" opacity="0.75" /><rect x="415.4" y="358.2" width="32" height="31.8" fill="#9bc3d4" opacity="0.75" /><rect x="487.6" y="381.7" width="32" height="8.3" fill="#9bc3d4" opacity="0.75" /><rect x="559.9" y="300.5" width="32" height="89.5" fill="#9bc3d4" opacity="0.75" /><rect x="632.2" y="378.7" width="32" height="11.3" fill="#9bc3d4" opacity="0.75" /><rect x="704.5" y="348.5" width="32" height="41.5" fill="#9bc3d4" opacity="0.75" /><rect x="776.7" y="311.5" width="32" height="78.5" fill="#9bc3d4" opacity="0.75" /><rect x="849.0" y="365.8" width="32" height="24.2" fill="#9bc3d4" opacity="0.75" />
  <polyline points="70.0,75.6 142.3,63.5 214.5,123.4 286.8,201.5 359.1,318.1 431.4,289.4 503.6,371.5 575.9,322.2 648.2,245.9 720.5,180.1 792.7,136.5 865.0,126.0" fill="none" stroke="#d05a37" stroke-width="4"/>
  <circle cx="70.0" cy="75.6" r="4" fill="#d05a37"/><circle cx="142.3" cy="63.5" r="4" fill="#d05a37"/><circle cx="214.5" cy="123.4" r="4" fill="#d05a37"/><circle cx="286.8" cy="201.5" r="4" fill="#d05a37"/><circle cx="359.1" cy="318.1" r="4" fill="#d05a37"/><circle cx="431.4" cy="289.4" r="4" fill="#d05a37"/><circle cx="503.6" cy="371.5" r="4" fill="#d05a37"/><circle cx="575.9" cy="322.2" r="4" fill="#d05a37"/><circle cx="648.2" cy="245.9" r="4" fill="#d05a37"/><circle cx="720.5" cy="180.1" r="4" fill="#d05a37"/><circle cx="792.7" cy="136.5" r="4" fill="#d05a37"/><circle cx="865.0" cy="126.0" r="4" fill="#d05a37"/>
  <text x="70.0" y="425" text-anchor="middle" font-size="13" fill="#333">01</text><text x="142.3" y="425" text-anchor="middle" font-size="13" fill="#333">02</text><text x="214.5" y="425" text-anchor="middle" font-size="13" fill="#333">03</text><text x="286.8" y="425" text-anchor="middle" font-size="13" fill="#333">04</text><text x="359.1" y="425" text-anchor="middle" font-size="13" fill="#333">05</text><text x="431.4" y="425" text-anchor="middle" font-size="13" fill="#333">06</text><text x="503.6" y="425" text-anchor="middle" font-size="13" fill="#333">07</text><text x="575.9" y="425" text-anchor="middle" font-size="13" fill="#333">08</text><text x="648.2" y="425" text-anchor="middle" font-size="13" fill="#333">09</text><text x="720.5" y="425" text-anchor="middle" font-size="13" fill="#333">10</text><text x="792.7" y="425" text-anchor="middle" font-size="13" fill="#333">11</text><text x="865.0" y="425" text-anchor="middle" font-size="13" fill="#333">12</text>
  <text x="70" y="448" font-family="Arial" font-size="12" fill="#555">Meses de 2024</text>
  <text x="18" y="60" font-family="Arial" font-size="12" fill="#d05a37" transform="rotate(-90 18,60)">Temperatura media</text>
  <text x="670" y="65" font-family="Arial" font-size="13" fill="#333">Línea: temperatura media | Barras: precipitación</text>
</svg>